%TF.GenerationSoftware,KiCad,Pcbnew,7.0.11+dfsg-1build4*%
%TF.CreationDate,2024-12-03T15:14:33-08:00*%
%TF.ProjectId,lightjar,6c696768-746a-4617-922e-6b696361645f,rev?*%
%TF.SameCoordinates,Original*%
%TF.FileFunction,Soldermask,Bot*%
%TF.FilePolarity,Negative*%
%FSLAX46Y46*%
G04 Gerber Fmt 4.6, Leading zero omitted, Abs format (unit mm)*
G04 Created by KiCad (PCBNEW 7.0.11+dfsg-1build4) date 2024-12-03 15:14:33*
%MOMM*%
%LPD*%
G01*
G04 APERTURE LIST*
%ADD10C,2.400000*%
%ADD11R,2.400000X2.400000*%
%ADD12O,1.700000X1.700000*%
%ADD13R,1.700000X1.700000*%
%ADD14O,1.800000X1.800000*%
%ADD15O,1.500000X1.500000*%
G04 APERTURE END LIST*
D10*
%TO.C,J2*%
X156000000Y-73750000D03*
D11*
X156000000Y-70250000D03*
%TD*%
D10*
%TO.C,J4*%
X156000000Y-65000000D03*
X156000000Y-61500000D03*
D11*
X156000000Y-58000000D03*
%TD*%
%TO.C,J1*%
X169799443Y-65030275D03*
D10*
X169799443Y-61530275D03*
X169799443Y-58030275D03*
X169799443Y-54530275D03*
X169799443Y-51030275D03*
X169799443Y-47530275D03*
%TD*%
D12*
%TO.C,U2*%
X160570000Y-78990000D03*
D13*
X163110000Y-78990000D03*
D12*
X165650000Y-78990000D03*
X154220000Y-127020000D03*
X154220000Y-124480000D03*
D13*
X154220000Y-121940000D03*
D12*
X154220000Y-119400000D03*
X154220000Y-116860000D03*
X154220000Y-114320000D03*
X154220000Y-111780000D03*
D13*
X154220000Y-109240000D03*
D12*
X154220000Y-106700000D03*
X154220000Y-104160000D03*
X154220000Y-101620000D03*
X154220000Y-99080000D03*
D13*
X154220000Y-96540000D03*
D12*
X154220000Y-94000000D03*
X154220000Y-91460000D03*
X154220000Y-88920000D03*
X154220000Y-86380000D03*
D13*
X154220000Y-83840000D03*
D12*
X154220000Y-81300000D03*
X154220000Y-78760000D03*
X172000000Y-78760000D03*
X172000000Y-81300000D03*
D13*
X172000000Y-83840000D03*
D12*
X172000000Y-86380000D03*
X172000000Y-88920000D03*
X172000000Y-91460000D03*
X172000000Y-94000000D03*
D13*
X172000000Y-96540000D03*
D12*
X172000000Y-99080000D03*
X172000000Y-101620000D03*
X172000000Y-104160000D03*
X172000000Y-106700000D03*
D13*
X172000000Y-109240000D03*
D12*
X172000000Y-111780000D03*
X172000000Y-114320000D03*
X172000000Y-116860000D03*
X172000000Y-119400000D03*
D13*
X172000000Y-121940000D03*
D12*
X172000000Y-124480000D03*
X172000000Y-127020000D03*
D14*
X160385000Y-126890000D03*
D15*
X160685000Y-123860000D03*
X165535000Y-123860000D03*
D14*
X165835000Y-126890000D03*
%TD*%
D11*
%TO.C,J3*%
X169800000Y-73750000D03*
D10*
X169800000Y-70250000D03*
%TD*%
M02*
