M48
; DRILL file {KiCad 7.0.11+dfsg-1build4} date Tue 03 Dec 2024 02:38:18 PM PST
; FORMAT={-:-/ absolute / inch / decimal}
; #@! TF.CreationDate,2024-12-03T14:38:18-08:00
; #@! TF.GenerationSoftware,Kicad,Pcbnew,7.0.11+dfsg-1build4
; #@! TF.FileFunction,Plated,1,2,PTH
FMAT,2
INCH
; #@! TA.AperFunction,Plated,PTH,ViaDrill
T1C0.0157
; #@! TA.AperFunction,Plated,PTH,ComponentDrill
T2C0.0402
; #@! TA.AperFunction,Plated,PTH,ComponentDrill
T3C0.0472
%
G90
G05
T1
X5.9055Y-4.9606
X5.9368Y-3.8001
X5.9389Y-3.3008
X5.9843Y-1.8307
X6.0039Y-1.7126
X6.0433Y-2.4409
X6.1417Y-4.311
X6.1417Y-4.8031
X6.1483Y-3.3004
X6.1509Y-3.8003
X6.2205Y-1.8307
X6.2402Y-2.2835
X6.2402Y-2.7756
X6.378Y-1.8898
X6.3976Y-2.5394
X6.4173Y-3.1693
X6.4567Y-2.5591
X6.5748Y-2.0866
X6.5945Y-2.2835
X6.5945Y-2.4213
X6.5945Y-2.5591
X6.5945Y-2.7165
X6.5945Y-2.8937
X6.6929Y-3.3071
X6.6929Y-3.7992
X6.6929Y-4.311
X6.6929Y-4.8031
X6.7717Y-1.6929
X6.7717Y-2.5984
X6.8504Y-3.0118
X6.9685Y-1.6929
X6.9685Y-2.5984
X6.9685Y-5.0591
T2
X6.0717Y-3.1008
X6.0717Y-3.2008
X6.0717Y-3.3008
X6.0717Y-3.4008
X6.0717Y-3.5008
X6.0717Y-3.6008
X6.0717Y-3.7008
X6.0717Y-3.8008
X6.0717Y-3.9008
X6.0717Y-4.0008
X6.0717Y-4.1008
X6.0717Y-4.2008
X6.0717Y-4.3008
X6.0717Y-4.4008
X6.0717Y-4.5008
X6.0717Y-4.6008
X6.0717Y-4.7008
X6.0717Y-4.8008
X6.0717Y-4.9008
X6.0717Y-5.0008
X6.3217Y-3.1098
X6.4217Y-3.1098
X6.5217Y-3.1098
X6.7717Y-3.1008
X6.7717Y-3.2008
X6.7717Y-3.3008
X6.7717Y-3.4008
X6.7717Y-3.5008
X6.7717Y-3.6008
X6.7717Y-3.7008
X6.7717Y-3.8008
X6.7717Y-3.9008
X6.7717Y-4.0008
X6.7717Y-4.1008
X6.7717Y-4.2008
X6.7717Y-4.3008
X6.7717Y-4.4008
X6.7717Y-4.5008
X6.7717Y-4.6008
X6.7717Y-4.7008
X6.7717Y-4.8008
X6.7717Y-4.9008
X6.7717Y-5.0008
T3
X6.1417Y-2.2835
X6.1417Y-2.4213
X6.1417Y-2.5591
X6.1417Y-2.7657
X6.1417Y-2.9035
X6.685Y-1.8713
X6.685Y-2.0091
X6.685Y-2.1469
X6.685Y-2.2847
X6.685Y-2.4225
X6.685Y-2.5602
X6.685Y-2.7657
X6.685Y-2.9035
M30
